<?xml version="1.0" encoding="UTF-8"?>
<svg width="512px" height="512px" viewBox="0 0 512 512" version="1.1" xmlns="http://www.w3.org/2000/svg" xmlns:xlink="http://www.w3.org/1999/xlink">
    <!-- Generator: Sketch 54.1 (76490) - https://sketchapp.com -->
    <title>address</title>
    <desc>Created with Sketch.</desc>
    <g id="Page-1" stroke="none" stroke-width="1" fill="none" fill-rule="evenodd">
        <g id="address" fill-rule="nonzero">
            <path d="M256.000528,0 C114.626047,0 0.00105520668,114.624991 0.00105520668,255.999472 C0.00105520668,397.371843 114.626047,511.998945 256.000528,511.998945 C397.375009,511.998945 511.99789,397.370788 511.99789,255.999472 C511.998945,114.624991 397.375009,0 256.000528,0 Z" id="Path" fill="#4D61FC"></path>
            <g id="pin" transform="translate(150.000000, 106.000000)">
                <path d="M105.999985,0 C47.5515932,0 0,47.3140205 0,105.470398 C0,125.108986 5.46959922,144.283504 15.8151977,160.947827 L99.9791857,295.844466 C101.569186,298.439038 104.431185,300 107.462785,300 L107.547585,300 C110.623905,299.975711 113.466318,298.361872 115.052384,295.738996 L197.053972,159.51343 C206.849577,143.172649 212.014415,124.497179 211.99997,105.470398 C211.99997,47.3140205 164.448377,0 105.999985,0 Z" id="Shape" fill="#FFFFFF"></path>
                <path d="M181.552146,149.090416 L107.350276,273 L31.2284824,150.272317 C22.6079004,136.395835 18.0267985,120.389318 18,104.051573 C18.0928763,55.4605679 57.4469106,16.0929085 106.021098,16 C154.583612,16.1045539 193.918768,55.4722012 194,104.051573 C194,119.943911 189.6538,135.519668 181.552146,149.090416 Z" id="Path" fill="#FFFFFF"></path>
                <path d="M105,52 C75.7434366,52.0347142 52.0350448,75.5194419 52,104.5 C52,133.27 75.3836,157 105,157 C134.9768,157 158,132.955 158,104.5 C158,75.562 134.2136,52 105,52 Z" id="Path" fill="#4D61FC"></path>
                <path d="M105.010547,157.999996 C75.7316241,157.96501 52.0116533,134.24976 52,105 C52.0929319,75.767449 75.7911595,52.0928393 105.052871,52 C134.292506,52.104661 157.953541,75.7893528 157.999932,104.999998 C158.022413,119.052354 152.448868,132.536545 142.508383,142.47902 C132.567898,152.421496 119.076938,158.005628 105.010547,157.999996 Z" id="Path" fill="#4D61FC"></path>
            </g>
        </g>
    </g>
</svg>