<?xml version="1.0" encoding="UTF-8"?>
<svg width="512px" height="512px" viewBox="0 0 512 512" version="1.1" xmlns="http://www.w3.org/2000/svg" xmlns:xlink="http://www.w3.org/1999/xlink">
    <!-- Generator: Sketch 54.1 (76490) - https://sketchapp.com -->
    <title>phone</title>
    <desc>Created with Sketch.</desc>
    <g id="Page-1" stroke="none" stroke-width="1" fill="none" fill-rule="evenodd">
        <g id="phone" transform="translate(0.000000, 0.000000)" fill-rule="nonzero">
            <path d="M256.000528,0 C114.626047,0 0.00105520668,114.624991 0.00105520668,255.999472 C0.00105520668,397.371843 114.626047,511.998945 256.000528,511.998945 C397.375009,511.998945 511.99789,397.370788 511.99789,255.999472 C511.998945,114.624991 397.375009,0 256.000528,0 Z" id="Path" fill="#4D61FC"></path>
            <path d="M391.185166,373.531558 L370.687776,394.033169 C367.02832,397.68735 356.312696,399.967651 355.968698,399.967651 C291.124137,400.533242 228.688613,375.062663 182.814558,329.184387 C136.814933,283.158382 111.314808,220.500209 111.999637,155.43722 C111.999637,155.407675 114.346417,144.999116 118.002708,141.377647 L138.499043,120.878146 C145.999452,113.342915 160.407244,109.937763 170.500296,113.314425 L174.81187,114.752672 C184.875376,118.126167 195.441161,129.253322 198.221631,139.504655 L208.532055,177.346477 C211.312525,187.627355 207.56232,202.253575 200.064021,209.753984 L186.377991,223.442125 C199.814993,273.186679 238.846033,312.225105 288.599028,325.694819 L302.279782,312.003512 C309.815013,304.468281 324.435957,300.721242 334.694676,303.497491 L372.531222,313.844848 C382.784666,316.662249 393.90971,327.161556 397.28215,337.221896 L398.720397,341.595728 C402.063292,351.660289 398.68452,366.064916 391.185166,373.531558 Z" id="Path" fill="#FFFFFF"></path>
        </g>
    </g>
</svg>