<?xml version="1.0" encoding="UTF-8"?>
<svg width="699px" height="144px" viewBox="0 0 699 144" version="1.1" xmlns="http://www.w3.org/2000/svg" xmlns:xlink="http://www.w3.org/1999/xlink">
    <!-- Generator: Sketch 53.2 (72643) - https://sketchapp.com -->
    <title>ഹരികഥ</title>
    <desc>Created with Sketch.</desc>
    <g id="Page-1" stroke="none" stroke-width="1" fill="none" fill-rule="evenodd">
        <g id="Artboard-Copy" transform="translate(-44.000000, -48.000000)" fill="#FFFFFF" fill-rule="nonzero">
            <path d="M87.75,186.085938 L83.2578125,175.734375 C86.1875146,174.041658 88.7265518,172.300139 90.875,170.509766 C93.0234482,168.719392 94.7812432,166.798838 96.1484375,164.748047 C97.5156318,162.697255 98.5247363,160.451184 99.1757812,158.009766 C99.8268262,155.568347 100.152344,152.850275 100.152344,149.855469 C100.152344,147.055976 99.582688,144.582042 98.4433594,142.433594 C97.3040308,140.285146 95.8717534,138.478523 94.1464844,137.013672 C92.4212153,135.548821 90.5006616,134.425785 88.3847656,133.644531 C86.2688696,132.863277 84.2343848,132.472656 82.28125,132.472656 C79.1562344,132.472656 76.3730591,132.977208 73.9316406,133.986328 C71.4902222,134.995448 69.4069097,136.395173 67.6816406,138.185547 C65.9563716,139.97592 64.6380254,142.140612 63.7265625,144.679688 C62.8150996,147.218763 62.359375,149.985662 62.359375,152.980469 C62.359375,155.32423 62.7825479,157.619129 63.6289062,159.865234 C64.4752646,162.111339 65.5983003,164.210928 66.9980469,166.164062 C68.3977935,168.117197 69.9928296,169.858716 71.7832031,171.388672 C73.5735767,172.918627 75.412751,174.139318 77.3007812,175.050781 L65.9726562,188.917969 C62.0012822,186.18358 58.6158994,183.286474 55.8164062,180.226562 C53.0169131,177.166651 50.73829,174.009131 48.9804688,170.753906 C47.2226475,167.498682 45.9531289,164.194678 45.171875,160.841797 C44.3906211,157.488916 44,154.184912 44,150.929688 C44,145.786433 45.1067598,141.066428 47.3203125,136.769531 C49.5338652,132.472635 52.382144,128.77801 55.8652344,125.685547 C59.3483247,122.593083 63.2545356,120.184253 67.5839844,118.458984 C71.9134331,116.733715 76.226541,115.871094 80.5234375,115.871094 C86.4479463,115.871094 91.7538828,116.847646 96.4414062,118.800781 C101.12893,120.753916 105.11652,123.325505 108.404297,126.515625 C111.692074,129.705745 114.214835,133.286438 115.972656,137.257812 C117.730478,141.229187 118.609375,145.233053 118.609375,149.269531 C118.609375,151.678397 118.381513,153.908193 117.925781,155.958984 C117.47005,158.009776 116.884118,159.865226 116.167969,161.525391 C115.451819,163.185555 114.638025,164.682936 113.726562,166.017578 C112.8151,167.35222 111.936202,168.507808 111.089844,169.484375 L155.816406,169.484375 C154.123689,167.466136 152.593757,165.106133 151.226562,162.404297 C149.859368,159.70246 148.687505,156.870458 147.710938,153.908203 C146.73437,150.945949 145.98568,147.934911 145.464844,144.875 C144.944008,141.815089 144.683594,138.885431 144.683594,136.085938 C144.683594,128.468712 145.920561,121.40498 148.394531,114.894531 C150.868502,108.384082 154.318988,102.752628 158.746094,98 C163.173199,93.2473721 168.46286,89.5201958 174.615234,86.8183594 C180.767609,84.1165229 187.522099,82.765625 194.878906,82.765625 C202.170609,82.765625 208.908823,84.1165229 215.09375,86.8183594 C221.278677,89.5201958 226.584613,93.2473721 231.011719,98 C235.438824,102.752628 238.905586,108.384082 241.412109,114.894531 C243.918632,121.40498 245.171875,128.468712 245.171875,136.085938 C245.171875,142.075551 244.146495,147.853488 242.095703,153.419922 C240.044912,158.986356 237.343116,164.113258 233.990234,168.800781 C230.637353,173.488305 226.845073,177.65493 222.613281,181.300781 C218.381489,184.946633 214.084657,187.876291 209.722656,190.089844 L198.6875,175.636719 C201.421889,174.529942 204.41665,172.853527 207.671875,170.607422 C210.9271,168.361317 213.970689,165.561866 216.802734,162.208984 C219.63478,158.856103 222.011058,154.949892 223.931641,150.490234 C225.852223,146.030577 226.8125,141.033882 226.8125,135.5 C226.8125,130.617163 226.047534,125.994813 224.517578,121.632812 C222.987623,117.270812 220.839207,113.429704 218.072266,110.109375 C215.305325,106.789046 211.952494,104.168629 208.013672,102.248047 C204.07485,100.327464 199.696639,99.3671875 194.878906,99.3671875 C190.061174,99.3671875 185.699238,100.327464 181.792969,102.248047 C177.886699,104.168629 174.550144,106.789046 171.783203,110.109375 C169.016262,113.429704 166.884122,117.270812 165.386719,121.632812 C163.889315,125.994813 163.140625,130.617163 163.140625,135.5 C163.140625,139.210956 163.612625,142.677718 164.556641,145.900391 C165.500656,149.123063 166.737623,152.117825 168.267578,154.884766 C169.797534,157.651707 171.506501,160.141916 173.394531,162.355469 C175.282562,164.569021 177.186839,166.489575 179.107422,168.117188 C181.028004,169.7448 182.867179,171.063146 184.625,172.072266 C186.382821,173.081385 187.84765,173.748696 189.019531,174.074219 L179.449219,186.085938 L87.75,186.085938 Z M315.289062,99.3671875 C310.341121,99.3671875 305.800151,100.408844 301.666016,102.492188 C297.53188,104.575531 293.983739,107.374982 291.021484,110.890625 C288.05923,114.406268 285.748055,118.491513 284.087891,123.146484 C282.427726,127.801456 281.597656,132.700495 281.597656,137.84375 C281.597656,141.554706 282.004553,145.281882 282.818359,149.025391 C283.632166,152.768899 284.901684,156.300765 286.626953,159.621094 C288.352222,162.941423 290.565742,165.968736 293.267578,168.703125 C295.969415,171.437514 299.240866,173.716137 303.082031,175.539062 L294.878906,191.359375 C289.86586,189.210927 285.40627,186.362648 281.5,182.814453 C277.59373,179.266258 274.273451,175.181013 271.539062,170.558594 C268.804674,165.936175 266.721361,160.841825 265.289062,155.275391 C263.856764,149.708957 263.140625,143.833364 263.140625,137.648438 C263.140625,130.486943 264.312488,123.602247 266.65625,116.994141 C269.000012,110.386035 272.385395,104.542994 276.8125,99.4648438 C281.239605,94.3866934 286.692025,90.3177236 293.169922,87.2578125 C299.647819,84.1979014 307.020792,82.6679688 315.289062,82.6679688 C323.817751,82.6679688 331.516242,84.1816255 338.384766,87.2089844 C345.25329,90.2363433 351.09633,94.3541406 355.914062,99.5625 C360.731795,104.770859 364.442695,110.841762 367.046875,117.775391 C369.651055,124.709019 370.953125,132.04944 370.953125,139.796875 C370.953125,146.893265 369.992848,153.436168 368.072266,159.425781 C366.151683,165.415395 363.628922,170.6074 360.503906,175.001953 C357.378891,179.396506 353.830749,182.830717 349.859375,185.304688 C345.888001,187.778658 341.884135,189.015625 337.847656,189.015625 C332.509088,189.015625 327.789083,187.81121 323.6875,185.402344 C319.585917,182.993478 316.135431,179.673198 313.335938,175.441406 C310.536444,171.209614 308.42058,166.229195 306.988281,160.5 C305.555982,154.770805 304.839844,148.618522 304.839844,142.042969 C304.839844,136.964818 305.458327,132.309917 306.695312,128.078125 C307.932298,123.846333 309.54361,119.98895 311.529297,116.505859 C313.514984,113.022769 315.744779,109.946628 318.21875,107.277344 C320.692721,104.60806 323.166654,102.329437 325.640625,100.441406 C324.013013,99.9856748 322.352873,99.692709 320.660156,99.5625 C318.967439,99.432291 317.177093,99.3671875 315.289062,99.3671875 Z M323.296875,142.042969 C323.296875,146.860701 323.654944,151.173809 324.371094,154.982422 C325.087243,158.791035 326.096348,162.013659 327.398438,164.650391 C328.700527,167.287123 330.246736,169.305332 332.037109,170.705078 C333.827483,172.104825 335.764313,172.804688 337.847656,172.804688 C340.061209,172.804688 342.079418,171.779307 343.902344,169.728516 C345.72527,167.677724 347.271478,165.057308 348.541016,161.867188 C349.810553,158.677067 350.787106,155.145202 351.470703,151.271484 C352.1543,147.397767 352.496094,143.638039 352.496094,139.992188 C352.496094,134.262992 351.60092,128.712917 349.810547,123.341797 C348.020173,117.970676 345.334653,113.364603 341.753906,109.523438 C339.149727,111.216154 336.724621,113.16926 334.478516,115.382812 C332.232411,117.596365 330.279305,120.070299 328.619141,122.804688 C326.958976,125.539076 325.656906,128.517562 324.712891,131.740234 C323.768875,134.962907 323.296875,138.397117 323.296875,142.042969 Z M351.128906,77.7851562 C351.845056,73.2278418 353.212229,69.1100444 355.230469,65.4316406 C357.248708,61.7532368 359.755193,58.6282681 362.75,56.0566406 C365.744807,53.4850132 369.130189,51.499356 372.90625,50.0996094 C376.682311,48.6998628 380.686177,48 384.917969,48 C389.800806,48 394.227845,48.7161387 398.199219,50.1484375 C402.170593,51.5807363 405.572251,53.6640488 408.404297,56.3984375 C411.236342,59.1328262 413.433586,62.4856572 414.996094,66.4570312 C416.558602,70.4284053 417.339844,74.9530996 417.339844,80.03125 L417.339844,186.085938 L398.882812,186.085938 L398.882812,85.109375 C398.882812,78.6640303 397.710949,73.6185078 395.367188,69.9726562 C393.023426,66.3268047 389.312525,64.5039062 384.234375,64.5039062 C380.328105,64.5039062 377.07293,65.7245972 374.46875,68.1660156 C371.86457,70.6074341 370.236982,73.8137822 369.585938,77.7851562 L351.128906,77.7851562 Z M548.785156,121.828125 C555.621128,121.828125 561.805962,122.430333 567.339844,123.634766 C572.873726,124.839199 577.59373,126.80858 581.5,129.542969 C585.40627,132.277357 588.417307,135.906878 590.533203,140.431641 C592.649099,144.956403 593.707031,150.539029 593.707031,157.179688 C593.707031,161.476584 592.925789,165.56183 591.363281,169.435547 C589.800773,173.309264 587.619806,176.710923 584.820312,179.640625 C582.020819,182.570327 578.684264,184.881502 574.810547,186.574219 C570.93683,188.266936 566.721377,189.113281 562.164062,189.113281 C559.429674,189.113281 556.939464,188.885419 554.693359,188.429688 C552.447254,187.973956 550.380218,187.355473 548.492188,186.574219 C546.604157,185.792965 544.797535,184.914067 543.072266,183.9375 C541.346997,182.960933 539.638029,181.951828 537.945312,180.910156 L547.222656,167.433594 C549.696627,168.930997 552.138009,170.167964 554.546875,171.144531 C556.955741,172.121099 559.494778,172.609375 562.164062,172.609375 C563.791675,172.609375 565.402987,172.218754 566.998047,171.4375 C568.593107,170.656246 569.992833,169.61459 571.197266,168.3125 C572.401699,167.01041 573.378251,165.496753 574.126953,163.771484 C574.875655,162.046215 575.25,160.239593 575.25,158.351562 C575.25,154.966129 574.761724,152.020195 573.785156,149.513672 C572.808589,147.007149 571.278656,144.940112 569.195312,143.3125 C567.111969,141.684888 564.377621,140.464197 560.992188,139.650391 C557.606754,138.836584 553.537784,138.429688 548.785156,138.429688 L546.050781,138.429688 C545.725259,155.096438 542.60029,167.710244 536.675781,176.271484 C530.751272,184.832725 521.734436,189.113281 509.625,189.113281 C504.937477,189.113281 500.65692,188.315763 496.783203,186.720703 C492.909486,185.125643 489.768241,183.058606 487.359375,180.519531 C485.992181,181.821621 484.559903,182.993484 483.0625,184.035156 C481.565097,185.076828 479.872405,185.972001 477.984375,186.720703 C476.096345,187.469405 473.964205,188.055336 471.587891,188.478516 C469.211577,188.901695 466.493505,189.113281 463.433594,189.113281 C458.811175,189.113281 454.677102,188.022797 451.03125,185.841797 C447.385398,183.660796 444.292981,180.877621 441.753906,177.492188 C439.214831,174.106754 437.278001,170.33075 435.943359,166.164062 C434.608717,161.997375 433.941406,157.928405 433.941406,153.957031 C433.941406,147.381478 434.934235,142.026713 436.919922,137.892578 C438.905609,133.758443 441.688784,130.519543 445.269531,128.175781 C448.850278,125.83202 453.082007,124.220708 457.964844,123.341797 C462.847681,122.462886 468.218721,121.958334 474.078125,121.828125 C474.338543,117.270811 475.315096,112.664737 477.007812,108.009766 C478.700529,103.354794 481.060532,99.1556177 484.087891,95.4121094 C487.11525,91.6686011 490.777322,88.6250117 495.074219,86.28125 C499.371115,83.9374883 504.221327,82.765625 509.625,82.765625 C515.093777,82.765625 520.025369,83.7584536 524.419922,85.7441406 C528.814475,87.7298276 532.574203,90.4804512 535.699219,93.9960938 C538.824234,97.5117363 541.281892,101.64581 543.072266,106.398438 C544.862639,111.151065 545.855468,116.294243 546.050781,121.828125 L548.785156,121.828125 Z M527.59375,121.828125 C527.463541,118.638005 526.991541,115.675795 526.177734,112.941406 C525.363928,110.207018 524.208341,107.830739 522.710938,105.8125 C521.213534,103.794261 519.37436,102.2155 517.193359,101.076172 C515.012359,99.9368433 512.489598,99.3671875 509.625,99.3671875 C506.955716,99.3671875 504.595713,100.050774 502.544922,101.417969 C500.49413,102.785163 498.768887,104.542958 497.369141,106.691406 C495.969394,108.839854 494.862634,111.248685 494.048828,113.917969 C493.235022,116.587253 492.73047,119.223945 492.535156,121.828125 L527.59375,121.828125 Z M492.4375,138.429688 C492.4375,140.838554 492.535155,143.345039 492.730469,145.949219 C492.925782,148.553398 493.267576,151.108711 493.755859,153.615234 C494.244143,156.121757 494.895178,158.514312 495.708984,160.792969 C496.522791,163.071626 497.580723,165.089835 498.882812,166.847656 C500.184902,168.605478 501.747387,169.988927 503.570312,170.998047 C505.393238,172.007167 507.541654,172.511719 510.015625,172.511719 C512.5547,172.511719 514.751944,171.990891 516.607422,170.949219 C518.4629,169.907547 520.04166,168.524097 521.34375,166.798828 C522.64584,165.073559 523.687496,163.071626 524.46875,160.792969 C525.250004,158.514312 525.868487,156.105481 526.324219,153.566406 C526.77995,151.027331 527.089192,148.455742 527.251953,145.851562 C527.414714,143.247383 527.528646,140.773449 527.59375,138.429688 L492.4375,138.429688 Z M463.726562,172.511719 C465.549488,172.511719 467.128249,172.414063 468.462891,172.21875 C469.797533,172.023437 471.018224,171.681643 472.125,171.193359 C473.231776,170.705076 474.257157,170.102868 475.201172,169.386719 C476.145187,168.670569 477.170567,167.75912 478.277344,166.652344 C476.584627,162.355447 475.477867,157.847029 474.957031,153.126953 C474.436195,148.406877 474.110678,143.507838 473.980469,138.429688 C470.464826,138.559896 467.356133,138.852862 464.654297,139.308594 C461.95246,139.764325 459.690113,140.561843 457.867188,141.701172 C456.044262,142.8405 454.677088,144.402985 453.765625,146.388672 C452.854162,148.374359 452.398438,150.89712 452.398438,153.957031 C452.398438,156.431002 452.658852,158.791004 453.179688,161.037109 C453.700523,163.283214 454.449214,165.252596 455.425781,166.945312 C456.402349,168.638029 457.590488,169.988927 458.990234,170.998047 C460.389981,172.007167 461.968741,172.511719 463.726562,172.511719 Z M610.40625,86.0859375 L628.863281,86.0859375 L628.863281,169.484375 L658.0625,169.484375 L658.0625,130.128906 C658.0625,123.878875 658.89257,117.889352 660.552734,112.160156 C662.212899,106.430961 664.751936,101.401714 668.169922,97.0722656 C671.587908,92.7428169 675.917292,89.2760547 681.158203,86.671875 C686.399115,84.0676953 692.632776,82.765625 699.859375,82.765625 C707.151078,82.765625 713.466119,84.0676953 718.804688,86.671875 C724.143256,89.2760547 728.521467,92.7428169 731.939453,97.0722656 C735.357439,101.401714 737.896476,106.430961 739.556641,112.160156 C741.216805,117.889352 742.046875,123.878875 742.046875,130.128906 L742.046875,186.085938 L610.40625,186.085938 L610.40625,86.0859375 Z M723.589844,169.484375 L723.589844,133.351562 C723.589844,129.83592 723.32943,126.076192 722.808594,122.072266 C722.287758,118.068339 721.180998,114.389991 719.488281,111.037109 C717.795564,107.684228 715.386734,104.901053 712.261719,102.6875 C709.136703,100.473947 705.00263,99.3671875 699.859375,99.3671875 C696.408837,99.3671875 693.446627,99.8717397 690.972656,100.880859 C688.498686,101.889979 686.399097,103.273429 684.673828,105.03125 C682.948559,106.789071 681.548833,108.80728 680.474609,111.085938 C679.400385,113.364595 678.570315,115.757149 677.984375,118.263672 C677.398435,120.770195 677.007813,123.325508 676.8125,125.929688 C676.617187,128.533867 676.519531,131.007801 676.519531,133.351562 L676.519531,169.484375 L723.589844,169.484375 Z" id="ഹരികഥ"></path>
        </g>
    </g>
</svg>